HIERARCHY
ROOT Hips
{
	OFFSET -0.001795 -0.223333 0.028219
	CHANNELS 6 Xposition Yposition Zposition Zrotation Yrotation Xrotation 
	JOINT LeftUpLeg
	{
		OFFSET 0.069520 -0.091406 -0.006815
		CHANNELS 3 Zrotation Yrotation Xrotation
		JOINT LeftLeg
		{
			OFFSET 0.034277 -0.375199 -0.004496
			CHANNELS 3 Zrotation Yrotation Xrotation
			JOINT LeftFoot
			{
				OFFSET -0.013596 -0.397961 -0.043693
				CHANNELS 3 Zrotation Yrotation Xrotation
				JOINT LeftToe
				{
					OFFSET 0.026358 -0.055791 0.119288
					CHANNELS 3 Zrotation Yrotation Xrotation
					End Site
					{
						OFFSET 0.000000 0.000000 0.000000
					}
				}
			}
		}
	}
	JOINT RightUpLeg
	{
		OFFSET -0.067670 -0.090522 -0.004320
		CHANNELS 3 Zrotation Yrotation Xrotation
		JOINT RightLeg
		{
			OFFSET -0.038290 -0.382569 -0.008850
			CHANNELS 3 Zrotation Yrotation Xrotation
			JOINT RightFoot
			{
				OFFSET 0.015774 -0.398415 -0.042312
				CHANNELS 3 Zrotation Yrotation Xrotation
				JOINT RightToe
				{
					OFFSET -0.025372 -0.048144 0.123348
					CHANNELS 3 Zrotation Yrotation Xrotation
					End Site
					{
						OFFSET 0.000000 0.000000 0.000000
					}
				}
			}
		}
	}
	JOINT Spine
	{
		OFFSET -0.002533 0.108963 -0.026696
		CHANNELS 3 Zrotation Yrotation Xrotation
		JOINT Spine1
		{
			OFFSET 0.005487 0.135180 0.001092
			CHANNELS 3 Zrotation Yrotation Xrotation
			JOINT Spine2
			{
				OFFSET 0.001457 0.052922 0.025425
				CHANNELS 3 Zrotation Yrotation Xrotation
				JOINT Neck
				{
					OFFSET -0.002778 0.213870 -0.042857
					CHANNELS 3 Zrotation Yrotation Xrotation
					JOINT Head
					{
						OFFSET 0.005152 0.064970 0.051349
						CHANNELS 3 Zrotation Yrotation Xrotation
						End Site
						{
							OFFSET 0.000000 0.000000 0.000000
						}
					}
				}
				JOINT LeftShoulder
				{
					OFFSET 0.078845 0.121749 -0.034090
					CHANNELS 3 Zrotation Yrotation Xrotation
					JOINT LeftArm
					{
						OFFSET 0.090977 0.030469 -0.008868
						CHANNELS 3 Zrotation Yrotation Xrotation
						JOINT LeftForeArm
						{
							OFFSET 0.259612 -0.012772 -0.027456
							CHANNELS 3 Zrotation Yrotation Xrotation
							JOINT LeftHand
							{
								OFFSET 0.249234 0.008986 -0.001171
								CHANNELS 3 Zrotation Yrotation Xrotation
								End Site
								{
									OFFSET 0.000000 0.000000 0.000000
								}
							}
						}
					}
				}
				JOINT RightShoulder
				{
					OFFSET -0.081759 0.118833 -0.038615
					CHANNELS 3 Zrotation Yrotation Xrotation
					JOINT RightArm
					{
						OFFSET -0.096012 0.032551 -0.009143
						CHANNELS 3 Zrotation Yrotation Xrotation
						JOINT RightForeArm
						{
							OFFSET -0.253742 -0.013329 -0.021401
							CHANNELS 3 Zrotation Yrotation Xrotation
							JOINT RightHand
							{
								OFFSET -0.255298 0.007772 -0.005559
								CHANNELS 3 Zrotation Yrotation Xrotation
								End Site
								{
									OFFSET 0.000000 0.000000 0.000000
								}
							}
						}
					}
				}
			}
		}
	}
}
MOTION
Frames: 10
Frame Time: 0.050000
0.700603 0.945283 -1.113149 -176.618120 -65.614669 -178.505122 -3.505330 8.958727 -27.443200 12.280525 13.083453 33.387298 -7.889097 -5.537549 -0.927534 0.000000 0.000000 0.000000 -2.495913 2.554816 1.249823 6.849608 3.129262 5.163480 -13.326072 -6.159154 6.938937 0.000000 0.000000 0.000000 12.418109 0.661252 5.478034 -2.446002 0.324911 -29.187493 4.331706 20.503244 35.894348 6.670195 -7.500637 -39.230660 0.000000 0.000000 0.000000 -22.797423 5.110248 17.463027 -44.371640 -32.721576 2.743813 164.662410 -23.415584 -49.256995 0.000000 0.000000 0.000000 19.411850 11.237982 -26.556511 67.687742 10.336071 0.935990 139.830729 32.403982 41.451494 0.000000 0.000000 0.000000 
0.672167 0.941781 -1.118678 -176.159516 -67.810263 -178.353659 -3.566091 9.146241 -28.364795 3.333717 7.181484 19.456632 -1.082741 1.862506 3.314140 0.000000 0.000000 0.000000 -2.452892 2.919288 3.390210 6.851410 2.873630 4.653820 -13.430864 -7.226654 6.949504 0.000000 0.000000 0.000000 12.063604 0.522797 5.886700 -2.183166 0.805231 -30.795037 5.588551 21.770833 36.896033 5.675174 -7.166089 -40.286661 0.000000 0.000000 0.000000 -22.375327 4.634890 16.279810 -45.024122 -31.806954 2.601292 164.932072 -24.027096 -52.888977 0.000000 0.000000 0.000000 19.136393 10.834455 -24.365495 69.702975 14.154644 1.932376 139.526378 33.793465 43.579549 0.000000 0.000000 0.000000 
0.641018 0.935883 -1.124300 -176.726625 -70.892860 -177.668920 -3.710346 8.661860 -28.611074 -1.542384 3.140663 7.014977 5.267127 6.477623 10.464701 0.000000 0.000000 0.000000 -2.391916 3.514766 6.227060 7.001147 2.597160 3.501670 -14.876141 -9.921269 8.368703 0.000000 0.000000 0.000000 11.003933 0.281569 6.365421 -2.438113 0.831474 -30.525729 6.085462 22.661499 36.096508 5.070295 -6.795528 -40.407781 0.000000 0.000000 0.000000 -20.613439 3.289424 14.583636 -47.952451 -32.011604 4.246489 165.550171 -24.682679 -55.276624 0.000000 0.000000 0.000000 18.878686 10.987836 -21.955120 72.673913 18.424564 3.278238 138.682604 35.554906 45.425485 0.000000 0.000000 0.000000 
0.605941 0.929247 -1.130381 -175.419831 -73.039262 -178.273008 -3.895090 8.705778 -29.471225 -1.751392 1.442689 0.585174 6.838345 6.745419 13.858344 0.000000 0.000000 0.000000 -2.319654 4.113099 8.578151 7.297709 2.435826 2.820576 -14.686552 -11.459154 10.071389 0.000000 0.000000 0.000000 10.339789 0.113690 6.687560 -3.045403 1.159798 -31.845161 7.137878 23.290335 37.001388 4.386699 -6.247710 -41.658580 0.000000 0.000000 0.000000 -21.472878 1.554800 15.508000 -44.679057 -33.793183 3.714439 165.202428 -23.353116 -54.480134 0.000000 0.000000 0.000000 20.777570 12.484338 -21.220156 72.998276 20.618198 5.429037 136.771334 37.226434 46.171833 0.000000 0.000000 0.000000 
0.565329 0.921887 -1.136154 -172.092672 -75.493525 179.086362 -4.214677 8.952482 -30.819428 -1.950137 1.729365 2.386503 6.139964 5.378879 14.525924 0.000000 0.000000 0.000000 -1.510268 4.022852 9.678023 6.644198 2.072410 5.071965 -13.374211 -11.105926 8.875221 0.000000 0.000000 0.000000 9.685249 -0.009555 5.875908 -3.200026 0.766584 -30.519533 6.412416 24.275845 36.002043 5.498974 -6.041483 -42.700236 0.000000 0.000000 0.000000 -19.750230 0.426599 14.030182 -44.628587 -34.418088 4.636624 166.127134 -23.713071 -57.827650 0.000000 0.000000 0.000000 22.766460 13.119236 -20.917720 73.326265 21.288027 6.662794 137.934029 38.059006 50.277650 0.000000 0.000000 0.000000 
0.518281 0.918471 -1.139799 -170.520919 -77.185368 177.875018 -4.129397 8.670823 -30.879758 -2.781557 2.928933 6.159603 7.531725 7.051343 14.514606 0.000000 0.000000 0.000000 -1.738632 4.277996 10.570857 6.986130 2.150667 8.858135 -11.908368 -12.166252 11.086740 0.000000 0.000000 0.000000 9.294529 -0.021702 4.457193 -4.880003 0.752946 -30.172328 7.695330 24.581062 36.792709 4.874684 -5.086033 -44.747961 0.000000 0.000000 0.000000 -19.623877 -1.101538 14.241824 -43.026189 -34.921838 4.368926 165.767650 -23.716727 -58.315578 0.000000 0.000000 0.000000 23.164212 14.042720 -19.381880 73.072863 22.291195 7.086165 137.193704 38.259671 49.435117 0.000000 0.000000 0.000000 
0.465712 0.920045 -1.138778 -170.728142 -80.121185 178.292076 -4.794684 6.747337 -29.135501 -2.904069 3.655141 8.414516 7.518323 7.838148 12.999540 0.000000 0.000000 0.000000 -3.401249 4.358139 9.632129 8.735897 2.967067 14.903951 -11.114705 -14.125198 13.698231 0.000000 0.000000 0.000000 8.301553 -0.009374 2.457749 -4.144360 0.845516 -30.326911 7.010573 25.300442 37.765892 5.656722 -5.022278 -45.168399 0.000000 0.000000 0.000000 -18.745006 -1.511105 13.079894 -42.761341 -34.651996 4.229585 164.715944 -24.501931 -57.846278 0.000000 0.000000 0.000000 24.477083 12.638394 -19.427056 72.593995 22.229438 7.079021 136.809794 37.965539 50.477854 0.000000 0.000000 0.000000 
0.411595 0.924842 -1.133280 -170.106428 -82.852603 177.250954 -5.236655 4.445223 -25.725616 -2.834231 4.574789 10.888298 5.560478 7.794681 7.945718 0.000000 0.000000 0.000000 -5.686853 4.105324 6.805520 12.367001 5.107398 24.684229 -5.919580 -14.682852 18.632545 0.000000 0.000000 0.000000 7.896580 0.086176 1.176590 -4.451950 0.401135 -28.024411 5.618463 24.952085 35.797846 6.460286 -5.351303 -43.773895 0.000000 0.000000 0.000000 -18.260748 -2.833780 12.849187 -43.023605 -35.179953 4.652578 163.434012 -26.075092 -59.662187 0.000000 0.000000 0.000000 23.594463 13.681465 -16.443815 73.150656 23.687605 6.921324 138.086368 38.592492 53.940877 0.000000 0.000000 0.000000 
0.360550 0.929665 -1.125078 -165.253250 -86.710820 171.184321 -6.047526 1.876703 -20.847383 -3.932933 5.276087 11.303525 5.601740 9.303136 6.170900 0.000000 0.000000 0.000000 -7.727826 3.483772 2.489211 17.758913 8.200209 37.324070 -5.570048 -18.287660 26.056786 0.000000 0.000000 0.000000 7.555370 -0.027160 1.860593 -4.698327 0.434500 -27.796654 5.066609 23.972984 35.017684 7.991172 -5.243141 -44.571497 0.000000 0.000000 0.000000 -19.171064 -4.347040 13.681587 -40.508845 -36.551913 4.091499 161.200252 -27.473782 -60.582943 0.000000 0.000000 0.000000 23.964551 11.913394 -15.747980 73.614707 24.659154 7.374863 139.000887 37.422324 55.220735 0.000000 0.000000 0.000000 
0.314969 0.933327 -1.115743 -98.251346 -89.187664 103.614112 -7.174870 0.209231 -16.273868 -3.341967 4.455386 10.124894 3.933225 8.375834 3.853178 0.000000 0.000000 0.000000 -9.510708 3.034355 -3.666759 25.746615 10.146134 49.037682 -12.682293 -24.760930 32.034428 0.000000 0.000000 0.000000 8.437404 0.038586 2.006692 -5.435121 0.394487 -26.653948 4.084436 22.809416 33.719920 8.733028 -5.376858 -44.235849 0.000000 0.000000 0.000000 -18.429783 -5.213058 13.315588 -39.888683 -36.278124 3.965436 160.572553 -27.412833 -60.701074 0.000000 0.000000 0.000000 24.187927 12.301859 -14.483899 73.436114 25.730773 8.151281 141.752935 37.551564 60.840078 0.000000 0.000000 0.000000 
